<svg width="25" height="25" viewBox="0 0 25 25" fill="none" xmlns="http://www.w3.org/2000/svg">
<path d="M17.8674 15.8286H16.7381L16.3379 15.4401C17.7387 13.7997 18.582 11.67 18.582 9.35327C18.582 4.18739 14.4225 0 9.29102 0C4.15952 0 0 4.18739 0 9.35327C0 14.5191 4.15952 18.7065 9.29102 18.7065C11.5923 18.7065 13.7078 17.8575 15.3373 16.4474L15.7233 16.8503V17.987L21.7971 24.0894C22.1359 24.4297 22.3052 24.5998 22.4951 24.6765C22.7356 24.7736 23.0044 24.7735 23.2448 24.6761C23.4346 24.5993 23.6038 24.4289 23.9422 24.0883C24.2765 23.7517 24.4437 23.5834 24.5193 23.395C24.615 23.1564 24.6152 22.8901 24.5197 22.6513C24.4443 22.4629 24.2773 22.2944 23.9433 21.9575L17.8674 15.8286ZM9.29102 15.8286C5.73185 15.8286 2.85878 12.9363 2.85878 9.35327C2.85878 5.77025 5.73185 2.87793 9.29102 2.87793C12.8502 2.87793 15.7233 5.77025 15.7233 9.35327C15.7233 12.9363 12.8502 15.8286 9.29102 15.8286Z" fill="black"/>
</svg>
