<svg width="1920" height="195" viewBox="0 0 1920 195" fill="none" xmlns="http://www.w3.org/2000/svg">
<path d="M-105.207 62.6C-105.207 71.6 -109.257 75.05 -117.507 75.05L-129.957 75.05L-129.957 50.15L-117.507 50.15C-109.257 50.15 -105.207 53.6 -105.207 62.6ZM-113.007 147.5C-85.4074 147.5 -70.2574 135.8 -70.2574 111.8C-70.2574 98.3 -78.0574 88.55 -90.5074 84.5C-80.0074 80.75 -73.5574 72.8 -73.5574 60.05C-73.5574 38.45 -87.2074 26.75 -114.207 26.75L-162.507 26.75L-162.507 147.5L-113.007 147.5ZM-102.807 110.15C-102.807 119.9 -106.857 124.1 -115.707 124.1L-129.957 124.1L-129.957 96.2L-115.707 96.2C-106.857 96.2 -102.807 100.4 -102.807 110.15ZM7.36055 87.05C7.36055 103.55 6.16055 111.8 2.56055 117.35C-0.589452 121.85 -4.78945 123.8 -10.6395 123.8C-16.4895 123.8 -20.5394 121.85 -23.6894 117.35C-27.4395 111.8 -28.6395 103.55 -28.6395 87.05C-28.6395 70.85 -27.4395 62.45 -23.6894 57.05C-20.5394 52.55 -16.4895 50.6 -10.6395 50.6C-4.78945 50.6 -0.589452 52.55 2.56055 57.05C6.16055 62.45 7.36055 70.85 7.36055 87.05ZM39.9106 87.05C39.9106 66.65 36.6106 50.45 26.8606 39.2C18.3105 29.45 5.56055 24.65 -10.6395 24.65C-26.8395 24.65 -39.4395 29.45 -47.9895 39.2C-57.8895 50.45 -61.1895 66.65 -61.1895 87.05C-61.1895 107.75 -57.8895 123.8 -47.9895 135.05C-39.4395 144.8 -26.8395 149.6 -10.6395 149.6C5.56055 149.6 18.3105 144.8 26.8606 135.05C36.6106 123.8 39.9106 107.75 39.9106 87.05ZM99.6316 147.5C138.032 147.5 148.832 124.85 148.832 87.05C148.832 49.85 138.182 26.75 99.6316 26.75L52.5316 26.75L52.5316 147.5L99.6316 147.5ZM116.432 87.05C116.432 116.45 111.332 122.75 98.5816 122.75L85.0816 122.75L85.0816 51.5L98.5816 51.5C110.732 51.5 116.432 57.2 116.432 87.05ZM190.972 26.75L152.872 147.5L185.422 147.5L190.372 128.15L224.122 128.15L229.072 147.5L261.772 147.5L223.672 26.75L190.972 26.75ZM217.972 103.85L196.522 103.85L207.322 61.85L217.972 103.85Z" fill="#EFEFEF"/>
<path d="M816.793 62.6C816.793 71.6 812.743 75.05 804.493 75.05L792.043 75.05V50.15L804.493 50.15C812.743 50.15 816.793 53.6 816.793 62.6ZM808.993 147.5C836.593 147.5 851.743 135.8 851.743 111.8C851.743 98.3 843.943 88.55 831.493 84.5C841.993 80.75 848.443 72.8 848.443 60.05C848.443 38.45 834.793 26.75 807.793 26.75L759.493 26.75L759.493 147.5L808.993 147.5ZM819.193 110.15C819.193 119.9 815.143 124.1 806.293 124.1L792.043 124.1V96.2L806.293 96.2C815.143 96.2 819.193 100.4 819.193 110.15ZM929.361 87.05C929.361 103.55 928.161 111.8 924.561 117.35C921.411 121.85 917.211 123.8 911.361 123.8C905.511 123.8 901.461 121.85 898.311 117.35C894.561 111.8 893.361 103.55 893.361 87.05C893.361 70.85 894.561 62.45 898.311 57.05C901.461 52.55 905.511 50.6 911.361 50.6C917.211 50.6 921.411 52.55 924.561 57.05C928.161 62.45 929.361 70.85 929.361 87.05ZM961.911 87.05C961.911 66.65 958.611 50.45 948.861 39.2C940.311 29.45 927.561 24.65 911.361 24.65C895.161 24.65 882.561 29.45 874.011 39.2C864.111 50.45 860.811 66.65 860.811 87.05C860.811 107.75 864.111 123.8 874.011 135.05C882.561 144.8 895.161 149.6 911.361 149.6C927.561 149.6 940.311 144.8 948.861 135.05C958.611 123.8 961.911 107.75 961.911 87.05ZM1021.63 147.5C1060.03 147.5 1070.83 124.85 1070.83 87.05C1070.83 49.85 1060.18 26.75 1021.63 26.75L974.532 26.75L974.532 147.5L1021.63 147.5ZM1038.43 87.05C1038.43 116.45 1033.33 122.75 1020.58 122.75L1007.08 122.75L1007.08 51.5L1020.58 51.5C1032.73 51.5 1038.43 57.2 1038.43 87.05ZM1112.97 26.75L1074.87 147.5L1107.42 147.5L1112.37 128.15L1146.12 128.15L1151.07 147.5L1183.77 147.5L1145.67 26.75L1112.97 26.75ZM1139.97 103.85L1118.52 103.85L1129.32 61.85L1139.97 103.85Z" fill="#EFEFEF"/>
<path d="M355.793 62.6C355.793 71.6 351.743 75.05 343.493 75.05L331.043 75.05V50.15L343.493 50.15C351.743 50.15 355.793 53.6 355.793 62.6ZM347.993 147.5C375.593 147.5 390.743 135.8 390.743 111.8C390.743 98.3 382.943 88.55 370.493 84.5C380.993 80.75 387.443 72.8 387.443 60.05C387.443 38.45 373.793 26.75 346.793 26.75L298.493 26.75L298.493 147.5L347.993 147.5ZM358.193 110.15C358.193 119.9 354.143 124.1 345.293 124.1L331.043 124.1L331.043 96.2L345.293 96.2C354.143 96.2 358.193 100.4 358.193 110.15ZM468.361 87.05C468.361 103.55 467.161 111.8 463.561 117.35C460.411 121.85 456.211 123.8 450.361 123.8C444.511 123.8 440.461 121.85 437.311 117.35C433.561 111.8 432.361 103.55 432.361 87.05C432.361 70.85 433.561 62.45 437.311 57.05C440.461 52.55 444.511 50.6 450.361 50.6C456.211 50.6 460.411 52.55 463.561 57.05C467.161 62.45 468.361 70.85 468.361 87.05ZM500.911 87.05C500.911 66.65 497.611 50.45 487.861 39.2C479.311 29.45 466.561 24.65 450.361 24.65C434.161 24.65 421.561 29.45 413.011 39.2C403.111 50.45 399.811 66.65 399.811 87.05C399.811 107.75 403.111 123.8 413.011 135.05C421.561 144.8 434.161 149.6 450.361 149.6C466.561 149.6 479.311 144.8 487.861 135.05C497.611 123.8 500.911 107.75 500.911 87.05ZM560.632 147.5C599.032 147.5 609.832 124.85 609.832 87.05C609.832 49.85 599.182 26.75 560.632 26.75L513.532 26.75L513.532 147.5L560.632 147.5ZM577.432 87.05C577.432 116.45 572.332 122.75 559.582 122.75L546.082 122.75L546.082 51.5L559.582 51.5C571.732 51.5 577.432 57.2 577.432 87.05ZM651.972 26.75L613.872 147.5L646.422 147.5L651.372 128.15L685.122 128.15L690.072 147.5L722.772 147.5L684.672 26.75L651.972 26.75ZM678.972 103.85L657.522 103.85L668.322 61.85L678.972 103.85Z" fill="#EFEFEF"/>
<path d="M1277.79 62.6C1277.79 71.6 1273.74 75.05 1265.49 75.05L1253.04 75.05L1253.04 50.15L1265.49 50.15C1273.74 50.15 1277.79 53.6 1277.79 62.6ZM1269.99 147.5C1297.59 147.5 1312.74 135.8 1312.74 111.8C1312.74 98.3 1304.94 88.55 1292.49 84.5C1302.99 80.75 1309.44 72.8 1309.44 60.05C1309.44 38.45 1295.79 26.75 1268.79 26.75L1220.49 26.75L1220.49 147.5L1269.99 147.5ZM1280.19 110.15C1280.19 119.9 1276.14 124.1 1267.29 124.1L1253.04 124.1V96.2L1267.29 96.2C1276.14 96.2 1280.19 100.4 1280.19 110.15ZM1390.36 87.05C1390.36 103.55 1389.16 111.8 1385.56 117.35C1382.41 121.85 1378.21 123.8 1372.36 123.8C1366.51 123.8 1362.46 121.85 1359.31 117.35C1355.56 111.8 1354.36 103.55 1354.36 87.05C1354.36 70.85 1355.56 62.45 1359.31 57.05C1362.46 52.55 1366.51 50.6 1372.36 50.6C1378.21 50.6 1382.41 52.55 1385.56 57.05C1389.16 62.45 1390.36 70.85 1390.36 87.05ZM1422.91 87.05C1422.91 66.65 1419.61 50.45 1409.86 39.2C1401.31 29.45 1388.56 24.65 1372.36 24.65C1356.16 24.65 1343.56 29.45 1335.01 39.2C1325.11 50.45 1321.81 66.65 1321.81 87.05C1321.81 107.75 1325.11 123.8 1335.01 135.05C1343.56 144.8 1356.16 149.6 1372.36 149.6C1388.56 149.6 1401.31 144.8 1409.86 135.05C1419.61 123.8 1422.91 107.75 1422.91 87.05ZM1482.63 147.5C1521.03 147.5 1531.83 124.85 1531.83 87.05C1531.83 49.85 1521.18 26.75 1482.63 26.75L1435.53 26.75L1435.53 147.5L1482.63 147.5ZM1499.43 87.05C1499.43 116.45 1494.33 122.75 1481.58 122.75L1468.08 122.75L1468.08 51.5L1481.58 51.5C1493.73 51.5 1499.43 57.2 1499.43 87.05ZM1573.97 26.75L1535.87 147.5L1568.42 147.5L1573.37 128.15L1607.12 128.15L1612.07 147.5L1644.77 147.5L1606.67 26.75L1573.97 26.75ZM1600.97 103.85L1579.52 103.85L1590.32 61.85L1600.97 103.85Z" fill="#EFEFEF"/>
<path d="M1738.79 62.6C1738.79 71.6 1734.74 75.05 1726.49 75.05L1714.04 75.05L1714.04 50.15L1726.49 50.15C1734.74 50.15 1738.79 53.6 1738.79 62.6ZM1730.99 147.5C1758.59 147.5 1773.74 135.8 1773.74 111.8C1773.74 98.3 1765.94 88.55 1753.49 84.5C1763.99 80.75 1770.44 72.8 1770.44 60.05C1770.44 38.45 1756.79 26.75 1729.79 26.75L1681.49 26.75L1681.49 147.5L1730.99 147.5ZM1741.19 110.15C1741.19 119.9 1737.14 124.1 1728.29 124.1L1714.04 124.1V96.2L1728.29 96.2C1737.14 96.2 1741.19 100.4 1741.19 110.15ZM1851.36 87.05C1851.36 103.55 1850.16 111.8 1846.56 117.35C1843.41 121.85 1839.21 123.8 1833.36 123.8C1827.51 123.8 1823.46 121.85 1820.31 117.35C1816.56 111.8 1815.36 103.55 1815.36 87.05C1815.36 70.85 1816.56 62.45 1820.31 57.05C1823.46 52.55 1827.51 50.6 1833.36 50.6C1839.21 50.6 1843.41 52.55 1846.56 57.05C1850.16 62.45 1851.36 70.85 1851.36 87.05ZM1883.91 87.05C1883.91 66.65 1880.61 50.45 1870.86 39.2C1862.31 29.45 1849.56 24.65 1833.36 24.65C1817.16 24.65 1804.56 29.45 1796.01 39.2C1786.11 50.45 1782.81 66.65 1782.81 87.05C1782.81 107.75 1786.11 123.8 1796.01 135.05C1804.56 144.8 1817.16 149.6 1833.36 149.6C1849.56 149.6 1862.31 144.8 1870.86 135.05C1880.61 123.8 1883.91 107.75 1883.91 87.05ZM1943.63 147.5C1982.03 147.5 1992.83 124.85 1992.83 87.05C1992.83 49.85 1982.18 26.75 1943.63 26.75L1896.53 26.75L1896.53 147.5L1943.63 147.5ZM1960.43 87.05C1960.43 116.45 1955.33 122.75 1942.58 122.75L1929.08 122.75L1929.08 51.5L1942.58 51.5C1954.73 51.5 1960.43 57.2 1960.43 87.05ZM2034.97 26.75L1996.87 147.5L2029.42 147.5L2034.37 128.15L2068.12 128.15L2073.07 147.5L2105.77 147.5L2067.67 26.75L2034.97 26.75ZM2061.97 103.85L2040.52 103.85L2051.32 61.85L2061.97 103.85Z" fill="#EFEFEF"/>
</svg>
