<svg width="35" height="36" viewBox="0 0 35 36" fill="none" xmlns="http://www.w3.org/2000/svg">
<ellipse cx="17.5" cy="17.585" rx="17.4737" ry="17.5588" transform="rotate(0.0860202 17.5 17.585)" fill="#F5F5F5"/>
<path d="M17 11V13.8C17 14.9201 17 15.4802 17.218 15.908C17.4097 16.2843 17.7157 16.5903 18.092 16.782C18.5198 17 19.0799 17 20.2 17H23M18.0941 11H14.2C13.0799 11 12.5198 11 12.092 11.218C11.7157 11.4097 11.4097 11.7157 11.218 12.092C11 12.5198 11 13.0799 11 14.2V21.8C11 22.9201 11 23.4802 11.218 23.908C11.4097 24.2843 11.7157 24.5903 12.092 24.782C12.5198 25 13.0799 25 14.2 25H19.8C20.9201 25 21.4802 25 21.908 24.782C22.2843 24.5903 22.5903 24.2843 22.782 23.908C23 23.4802 23 22.9201 23 21.8V16.0576C23 15.5968 23 15.3664 22.9505 15.1481C22.9067 14.9545 22.8342 14.7686 22.7356 14.5964C22.6244 14.4022 22.4686 14.2325 22.1569 13.8931L20.451 12.0355C20.1006 11.654 19.9255 11.4633 19.7166 11.3266C19.5314 11.2054 19.3275 11.1158 19.113 11.0614C18.871 11 18.612 11 18.0941 11Z" stroke="black" stroke-width="2"/>
</svg>
