<svg width="60" height="60" viewBox="0 0 60 60" fill="none" xmlns="http://www.w3.org/2000/svg">
<circle cx="30" cy="30" r="30" fill="#323232"/>
<path d="M21.028 24.7925C20.4637 25.3456 20.4637 26.2544 21.028 26.8075V26.8075C21.5761 27.3446 22.4529 27.345 23.0016 26.8086L28.5714 21.362V42.5714C28.5714 43.3604 29.211 44 30 44V44C30.789 44 31.4286 43.3604 31.4286 42.5714V21.362L36.9919 26.8141C37.5434 27.3546 38.4265 27.353 38.9761 26.8106V26.8106C39.5388 26.2552 39.5372 25.3464 38.9725 24.7931L31.3999 17.3719C30.6222 16.6098 29.3778 16.6098 28.6001 17.3719L21.028 24.7925Z" fill="white"/>
</svg>
